<svg width="140" height="156" viewBox="0 0 140 156" xmlns="http://www.w3.org/2000/svg" style="background:#0a0a0a">
<style>.px { shape-rendering: crispEdges; }</style>

<rect width="140" height="156" fill="#0a0a0a"/>
<g class="px" transform="translate(22, 22)">

<!-- === STEAM === -->
<!-- left wisp -->
<rect x="12" y="0"  width="8" height="8" fill="#00FF00"/>
<rect x="12" y="16" width="8" height="8" fill="#00FF00"/>
<rect x="20" y="8"  width="8" height="8" fill="#00FF00"/>
<rect x="20" y="24" width="8" height="8" fill="#00FF00"/>

<!-- right wisp -->
<rect x="72" y="0"  width="8" height="8" fill="#00FF00"/>
<rect x="72" y="16" width="8" height="8" fill="#00FF00"/>
<rect x="64" y="8"  width="8" height="8" fill="#00FF00"/>
<rect x="64" y="24" width="8" height="8" fill="#00FF00"/>

<!-- === CUP RIM === -->
<rect x="0"   y="48" width="8" height="8" fill="#ffffff"/>
<rect x="8"   y="48" width="8" height="8" fill="#00FF00"/>
<rect x="16"  y="48" width="8" height="8" fill="#00FF00"/>
<rect x="24"  y="48" width="8" height="8" fill="#00FF00"/>
<rect x="32"  y="48" width="8" height="8" fill="#00FF00"/>
<rect x="40"  y="48" width="8" height="8" fill="#00FF00"/>
<rect x="48"  y="48" width="8" height="8" fill="#00FF00"/>
<rect x="56"  y="48" width="8" height="8" fill="#00FF00"/>
<rect x="64"  y="48" width="8" height="8" fill="#00FF00"/>
<rect x="72"  y="48" width="8" height="8" fill="#ffffff"/>
<rect x="80"  y="48" width="8" height="8" fill="#ffffff"/>
<rect x="88"  y="48" width="8" height="8" fill="#ffffff"/>

<!-- === CUP BODY row 1 === -->
<rect x="0"   y="56" width="8" height="8" fill="#ffffff"/>
<rect x="8"   y="56" width="8" height="8" fill="#00FF00"/>
<rect x="16"  y="56" width="8" height="8" fill="#00FF00"/>
<rect x="24"  y="56" width="8" height="8" fill="#00FF00"/>
<rect x="32"  y="56" width="8" height="8" fill="#00FF00"/>
<rect x="40"  y="56" width="8" height="8" fill="#00FF00"/>
<rect x="48"  y="56" width="8" height="8" fill="#00FF00"/>
<rect x="56"  y="56" width="8" height="8" fill="#00FF00"/>
<rect x="64"  y="56" width="8" height="8" fill="#00FF00"/>
<rect x="72"  y="56" width="8" height="8" fill="#ffffff"/>
<rect x="80"  y="56" width="8" height="8" fill="#00FF00"/>
<rect x="88"  y="56" width="8" height="8" fill="#ffffff"/>

<!-- === CUP BODY row 2 === -->
<rect x="0"   y="64" width="8" height="8" fill="#ffffff"/>
<rect x="8"   y="64" width="8" height="8" fill="#00FF00"/>
<rect x="16"  y="64" width="8" height="8" fill="#00FF00"/>
<rect x="24"  y="64" width="8" height="8" fill="#00FF00"/>
<rect x="32"  y="64" width="8" height="8" fill="#00FF00"/>
<rect x="40"  y="64" width="8" height="8" fill="#00FF00"/>
<rect x="48"  y="64" width="8" height="8" fill="#00FF00"/>
<rect x="56"  y="64" width="8" height="8" fill="#00FF00"/>
<rect x="64"  y="64" width="8" height="8" fill="#00FF00"/>
<rect x="72"  y="64" width="8" height="8" fill="#ffffff"/>
<rect x="80"  y="64" width="8" height="8" fill="#00FF00"/>
<rect x="88"  y="64" width="8" height="8" fill="#ffffff"/>

<!-- === CUP BODY row 3 === -->
<rect x="0"   y="72" width="8" height="8" fill="#ffffff"/>
<rect x="8"   y="72" width="8" height="8" fill="#00FF00"/>
<rect x="16"  y="72" width="8" height="8" fill="#00FF00"/>
<rect x="24"  y="72" width="8" height="8" fill="#00FF00"/>
<rect x="32"  y="72" width="8" height="8" fill="#00FF00"/>
<rect x="40"  y="72" width="8" height="8" fill="#00FF00"/>
<rect x="48"  y="72" width="8" height="8" fill="#00FF00"/>
<rect x="56"  y="72" width="8" height="8" fill="#00FF00"/>
<rect x="64"  y="72" width="8" height="8" fill="#00FF00"/>
<rect x="72"  y="72" width="8" height="8" fill="#ffffff"/>
<rect x="80"  y="72" width="8" height="8" fill="#ffffff"/>

<!-- === CUP TAPER === -->
<rect x="8"   y="80" width="8" height="8" fill="#ffffff"/>
<rect x="16"  y="80" width="8" height="8" fill="#00FF00"/>
<rect x="24"  y="80" width="8" height="8" fill="#00FF00"/>
<rect x="32"  y="80" width="8" height="8" fill="#00FF00"/>
<rect x="40"  y="80" width="8" height="8" fill="#00FF00"/>
<rect x="48"  y="80" width="8" height="8" fill="#00FF00"/>
<rect x="56"  y="80" width="8" height="8" fill="#00FF00"/>
<rect x="64"  y="80" width="8" height="8" fill="#ffffff"/>

<!-- === CUP BASE === -->
<rect x="8"   y="88" width="8" height="8" fill="#ffffff"/>
<rect x="16"  y="88" width="8" height="8" fill="#ffffff"/>
<rect x="24"  y="88" width="8" height="8" fill="#ffffff"/>
<rect x="32"  y="88" width="8" height="8" fill="#ffffff"/>
<rect x="40"  y="88" width="8" height="8" fill="#ffffff"/>
<rect x="48"  y="88" width="8" height="8" fill="#ffffff"/>
<rect x="56"  y="88" width="8" height="8" fill="#ffffff"/>
<rect x="64"  y="88" width="8" height="8" fill="#ffffff"/>

<!-- === SAUCER === -->
<rect x="0"   y="96" width="8" height="8" fill="#ffffff"/>
<rect x="8"   y="96" width="8" height="8" fill="#0a0a0a"/>
<rect x="16"  y="96" width="8" height="8" fill="#0a0a0a"/>
<rect x="24"  y="96" width="8" height="8" fill="#0a0a0a"/>
<rect x="32"  y="96" width="8" height="8" fill="#0a0a0a"/>
<rect x="40"  y="96" width="8" height="8" fill="#0a0a0a"/>
<rect x="48"  y="96" width="8" height="8" fill="#0a0a0a"/>
<rect x="56"  y="96" width="8" height="8" fill="#0a0a0a"/>
<rect x="64"  y="96" width="8" height="8" fill="#0a0a0a"/>
<rect x="72"  y="96" width="8" height="8" fill="#0a0a0a"/>
<rect x="80"  y="96" width="8" height="8" fill="#ffffff"/>

<!-- saucer bottom -->
<rect x="8"   y="104" width="8" height="8" fill="#ffffff"/>
<rect x="16"  y="104" width="8" height="8" fill="#ffffff"/>
<rect x="24"  y="104" width="8" height="8" fill="#ffffff"/>
<rect x="32"  y="104" width="8" height="8" fill="#ffffff"/>
<rect x="40"  y="104" width="8" height="8" fill="#ffffff"/>
<rect x="48"  y="104" width="8" height="8" fill="#ffffff"/>
<rect x="56"  y="104" width="8" height="8" fill="#ffffff"/>
<rect x="64"  y="104" width="8" height="8" fill="#ffffff"/>
<rect x="72"  y="104" width="8" height="8" fill="#ffffff"/>

</g>
</svg>
